<svg width="60" height="60" viewBox="0 0 60 60" fill="none" xmlns="http://www.w3.org/2000/svg">
<rect width="60" height="47.4944" rx="4" fill="#4E4D4D"/>
<path d="M2.50149 47.4122H5.5301C4.14879 47.4122 3.02861 46.0307 3.02861 44.3265V3.08557C3.02861 1.38135 4.1487 0 5.5301 0H2.50149C1.11992 0 0 1.38135 0 3.08557V39.8742V44.3265C0 46.0307 1.11992 47.4122 2.50149 47.4122Z" fill="#595959"/>
<path d="M7 39.998C7 41.3586 7.89047 42.4615 8.98868 42.4615H9.86309H53.0113C54.1096 42.4615 55 41.3586 55 39.998V7.92542C55 6.56479 54.1096 5.46155 53.0113 5.46155H9.86309H8.98868C7.89039 5.46155 7 6.56479 7 7.92542V39.998Z" fill="#ABDDF9"/>
<path d="M48.1536 51.9756H43.0201H22.9785C23.693 51.9756 24.2723 52.6902 24.2723 53.5718V58.4039C24.2723 59.2853 23.693 59.9999 22.9785 59.9999H41.9034C41.829 59.3043 41.7562 58.8567 41.6872 58.7052C41.2298 58.4402 40.3913 58.2599 39.5303 58.1377V58.2554C39.5303 58.4804 39.3825 58.6626 39.2002 58.6626H38.4344H35.7246H34.9589C34.7766 58.6626 34.6287 58.4804 34.6287 58.2554V57.0029C34.6287 56.778 34.7766 56.5957 34.9589 56.5957H35.7246H38.4344H39.2002C39.3824 56.5957 39.5303 56.778 39.5303 57.0029V57.6032C40.4705 57.7359 41.4055 57.9382 41.9111 58.2482C42.0248 58.3179 42.1622 58.4082 42.3334 59.9999H48.1536C49.2124 59.9999 50.0706 58.9412 50.0706 57.6351V54.3405C50.0705 53.0343 49.2124 51.9756 48.1536 51.9756Z" fill="#4E4D4D"/>
<path d="M26.7383 55.7502H27.2389H39.089C39.4188 55.7502 39.6863 55.4204 39.6863 55.0132V54.4201C39.6863 54.0129 39.4188 53.6832 39.089 53.6832H27.2389H26.7383C26.4082 53.6832 26.1406 54.013 26.1406 54.4201V55.0132C26.1407 55.4204 26.4082 55.7502 26.7383 55.7502Z" fill="#646363"/>
<path d="M31.0119 56.5956H30.2461C30.4286 56.5956 30.5764 56.7779 30.5764 57.0028V58.2553C30.5764 58.4803 30.4286 58.6625 30.2461 58.6625H31.0119C31.1941 58.6625 31.342 58.4803 31.342 58.2553V57.0028C31.3419 56.778 31.1941 56.5956 31.0119 56.5956Z" fill="#595959"/>
<path d="M30.5763 58.2555V57.0029C30.5763 56.778 30.4285 56.5957 30.246 56.5957H27.5363H26.7705C26.5882 56.5957 26.4404 56.778 26.4404 57.0029V58.2555C26.4404 58.4804 26.5882 58.6627 26.7705 58.6627H27.5363H30.246C30.4285 58.6626 30.5763 58.4804 30.5763 58.2555Z" fill="#646363"/>
<path d="M39.2004 56.5956H38.4346C38.6169 56.5956 38.7647 56.7779 38.7647 57.0028V57.5087C39.0152 57.5352 39.272 57.5667 39.5305 57.6032V57.0029C39.5305 56.778 39.3827 56.5956 39.2004 56.5956Z" fill="#595959"/>
<path d="M38.4337 56.5956H35.7238H34.9582C34.7759 56.5956 34.6279 56.7779 34.6279 57.0028V58.2553C34.6279 58.4803 34.7759 58.6625 34.9582 58.6625H35.7238H38.4337C38.616 58.6625 38.7638 58.4803 38.7638 58.2553V58.0427C37.6654 57.9259 36.7099 57.8955 36.6907 57.895C36.5717 57.8913 36.4776 57.7695 36.4804 57.6226C36.4833 57.4756 36.5683 57.3533 36.7012 57.3632C36.7785 57.3655 37.6953 57.3956 38.7637 57.5087V57.0028C38.7637 56.778 38.616 56.5956 38.4337 56.5956Z" fill="#646363"/>
<path d="M43.0195 51.4226C43.0195 50.1164 42.1613 49.0578 41.1025 49.0578H39.1017H29.3441H25.7222V47.4124H22.3957L19.9564 49.2404H18.9906C17.9318 49.2404 17.0735 50.2991 17.0735 51.605V51.9757H16.0619H9.20127C8.48663 51.9757 7.90723 52.6903 7.90723 53.572V58.4041C7.90723 59.2854 8.48654 60 9.20127 60H16.0619H17.7846H22.978C23.6925 60 24.2718 59.2854 24.2718 58.4041V53.572C24.2718 52.6904 23.6925 51.9757 22.978 51.9757H43.0196L43.0195 51.4226Z" fill="#595959"/>
<path d="M44.1104 55.8967C44.1104 56.818 44.6577 57.5641 45.3462 57.6187C45.3727 57.6208 45.3978 57.6291 45.4248 57.6291C46.1506 57.6291 46.739 56.8536 46.739 55.8967C46.739 54.9398 46.1506 54.1642 45.4248 54.1642C45.3978 54.1642 45.3727 54.1725 45.3462 54.1746C44.6577 54.2292 44.1104 54.9753 44.1104 55.8967Z" fill="#646363"/>
<path d="M25.6689 47.4944H39.8668L40.9096 49.0775H25.6689V47.4944Z" fill="#4E4D4D"/>
</svg>
