<svg width="60" height="60" viewBox="0 0 60 60" fill="none" xmlns="http://www.w3.org/2000/svg">
<path d="M3.01172 2.25818V20.7782H31.6891C35.8483 20.7782 39.2203 24.1498 39.2203 28.3093V56.9884H57.7392V21.7452C57.7392 10.9828 49.0151 2.25818 38.2534 2.25818H3.01172Z" fill="#FFB245"/>
<path opacity="0.6" d="M57.7377 47.3641H39.2188V53.9776H57.7377V47.3641Z" fill="url(#paint0_linear_40_312)"/>
<path opacity="0.6" d="M3.01172 3.49318V10.1066H52.7347C52.0555 8.35476 45.4313 3.23507 38.5405 3.49318H3.01172Z" fill="url(#paint1_linear_40_312)"/>
<path d="M10.0802 18.4842C10.0802 19.1184 9.56582 19.6328 8.93168 19.6328C8.29755 19.6328 7.7832 19.1184 7.7832 18.4842C7.7832 17.8501 8.29755 17.3357 8.93168 17.3357C9.56643 17.3357 10.0802 17.8501 10.0802 18.4842Z" fill="#C9721A"/>
<path d="M16.1104 18.4842C16.1104 19.1184 15.5961 19.6328 14.962 19.6328C14.3278 19.6328 13.8135 19.1184 13.8135 18.4842C13.8135 17.8501 14.3278 17.3357 14.962 17.3357C15.5961 17.3357 16.1104 17.8501 16.1104 18.4842Z" fill="#C9721A"/>
<path d="M22.1397 18.4842C22.1397 19.1184 21.6254 19.6328 20.9913 19.6328C20.3571 19.6328 19.8428 19.1184 19.8428 18.4842C19.8428 17.8501 20.3571 17.3357 20.9913 17.3357C21.6254 17.3357 22.1397 17.8501 22.1397 18.4842Z" fill="#C9721A"/>
<path d="M57.2188 14.171C56.1234 10.4858 53.2677 4.57134 45.9878 2.18409C44.1373 1.57708 42.133 2.52371 41.4223 4.33669C39.5483 9.11491 34.75 20.0076 34.75 21.9657C34.75 23.4841 35.7052 24.7766 37.0463 25.2835C37.4032 25.4379 37.8033 25.5176 38.2393 25.5126C38.2597 25.5132 38.2794 25.5157 38.2998 25.5157C38.9222 25.5157 39.5069 25.3545 40.0157 25.073L55.2096 18.4663C56.8669 17.7445 57.7338 15.9031 57.2188 14.171Z" fill="#E38E27"/>
<path d="M41.6844 22.2664C41.6641 22.2664 41.6443 22.2639 41.6239 22.2633C41.1886 22.2683 40.7885 22.1886 40.431 22.0342C39.0899 21.5273 38.1346 20.2348 38.1346 18.7164C38.1346 16.8769 42.3717 7.14631 44.4377 2.0155C43.1318 2.17111 41.9567 3.02203 41.4467 4.32125C39.5727 9.09946 34.7744 19.9922 34.7744 21.9503C34.7744 23.4687 35.7296 24.7611 37.0708 25.2681C37.4276 25.4225 37.8278 25.5021 38.2631 25.4972C38.2835 25.4978 38.3032 25.5003 38.3236 25.5003C38.946 25.5003 39.5307 25.3391 40.0395 25.0575L55.2334 18.4509C56.3769 17.9538 57.1432 16.9226 57.3402 15.7623L43.3997 21.8237C42.8916 22.1052 42.3074 22.2664 41.6844 22.2664Z" fill="#C9721A"/>
<path d="M4.90944 22.6246H1.11267C0.498292 22.6246 0 22.1263 0 21.5118V1.11273C0 0.498321 0.498292 0 1.11267 0H4.90944C5.52381 0 6.02211 0.498321 6.02211 1.11273V21.5118C6.02211 22.1263 5.52381 22.6246 4.90944 22.6246Z" fill="#E38E27"/>
<path d="M37.377 58.8873V55.0903C37.377 54.4759 37.8752 53.9775 38.4896 53.9775H58.8875C59.5018 53.9775 60.0001 54.4759 60.0001 55.0903V58.8873C60.0001 59.5017 59.5018 60 58.8875 60H38.4896C37.8746 60 37.377 59.5017 37.377 58.8873Z" fill="#E38E27"/>
<path d="M4.90924 22.6246H2.77344C3.38781 22.6246 3.8861 22.1263 3.8861 21.5118V1.11273C3.8861 0.498321 3.38781 0 2.77344 0H4.90924C5.52361 0 6.02191 0.498321 6.02191 1.11273V21.5118C6.02191 22.1263 5.52361 22.6246 4.90924 22.6246Z" fill="#C9721A"/>
<path d="M60.0001 55.0903V57.2262C60.0001 56.6118 59.5018 56.1135 58.8875 56.1135H38.4896C37.8752 56.1135 37.377 56.6118 37.377 57.2262V55.0903C37.377 54.4759 37.8752 53.9775 38.4896 53.9775H58.8875C59.5018 53.9775 60.0001 54.4759 60.0001 55.0903Z" fill="#C9721A"/>
<path d="M51.7727 11.3119C51.7727 13.015 50.392 14.3957 48.6891 14.3957C46.9861 14.3957 45.6055 13.015 45.6055 11.3119C45.6055 9.60888 46.9861 8.22815 48.6891 8.22815C50.392 8.22815 51.7727 9.60888 51.7727 11.3119Z" fill="#C9721A"/>
<defs>
<linearGradient id="paint0_linear_40_312" x1="48.4783" y1="47.3641" x2="48.4783" y2="53.9777" gradientUnits="userSpaceOnUse">
<stop offset="0.0016" stop-color="white" stop-opacity="0"/>
<stop offset="1" stop-color="white"/>
</linearGradient>
<linearGradient id="paint1_linear_40_312" x1="27.8729" y1="10.1069" x2="27.8729" y2="3.48379" gradientUnits="userSpaceOnUse">
<stop offset="0.0016" stop-color="white" stop-opacity="0"/>
<stop offset="1" stop-color="white"/>
</linearGradient>
</defs>
</svg>
