<svg width="60" height="60" viewBox="0 0 60 60" fill="none" xmlns="http://www.w3.org/2000/svg">
<path d="M56.7742 43.2359L45.532 31.9936C44.4308 30.8924 44.4308 29.1074 45.532 28.0062L56.7742 16.7639L43.235 3.22522L31.9928 14.4675C30.8916 15.5688 29.1066 15.5688 28.0054 14.4675L16.7632 3.22522L3.22461 16.7639L14.4668 28.0062C15.5681 29.1074 15.5681 30.8924 14.4668 31.9936L3.22461 43.2359L16.7638 56.7752L28.006 45.5329C29.1073 44.4317 30.8922 44.4317 31.9935 45.5329L43.2357 56.7752L56.7742 43.2359Z" fill="#FFB245"/>
<path opacity="0.6" d="M41.0345 5.42639L36.1992 10.2617L49.7384 23.8003L54.573 18.9657L41.0345 5.42639Z" fill="url(#paint0_linear_40_261)"/>
<path opacity="0.6" d="M18.9659 54.5734L23.8005 49.7387L10.2614 36.1995L5.42676 41.0347L18.9659 54.5734Z" fill="url(#paint1_linear_40_261)"/>
<path d="M3.11283 19.6526L0.337075 16.8768C-0.112358 16.4274 -0.112358 15.699 0.337075 15.2502L15.2501 0.337077C15.6995 -0.112359 16.4279 -0.112359 16.8767 0.337077L19.6525 3.11285C20.1019 3.56229 20.1019 4.29007 19.6525 4.73951L4.73948 19.6526C4.29004 20.1021 3.56163 20.1021 3.11283 19.6526Z" fill="#E38E27"/>
<path d="M43.1236 59.6633L40.3478 56.8876C39.8984 56.4381 39.8984 55.7097 40.3478 55.2609L55.2608 40.3484C55.7103 39.899 56.438 39.899 56.8875 40.3484L59.6632 43.1242C60.1127 43.5736 60.1127 44.3021 59.6632 44.7509L44.7502 59.664C44.3008 60.1121 43.5724 60.1121 43.1236 59.6633Z" fill="#E38E27"/>
<path d="M40.3477 3.11285L43.1235 0.337077C43.5729 -0.112359 44.3014 -0.112359 44.7501 0.337077L59.6632 15.2502C60.1126 15.6996 60.1126 16.428 59.6632 16.8768L56.8874 19.6526C56.438 20.1021 55.7095 20.1021 55.2608 19.6526L40.3484 4.73951C39.8983 4.29071 39.8983 3.56229 40.3477 3.11285Z" fill="#E38E27"/>
<path d="M0.337075 43.1236L3.11283 40.3478C3.56227 39.8984 4.29068 39.8984 4.73948 40.3478L19.6525 55.2603C20.1019 55.7097 20.1019 56.4381 19.6525 56.8869L16.8767 59.6627C16.4273 60.1122 15.6995 60.1122 15.2501 59.6627L0.337075 44.7496C-0.112358 44.3014 -0.112358 43.573 0.337075 43.1236Z" fill="#E38E27"/>
<path d="M3.1123 19.6527L1.55078 18.0912C2.00021 18.5406 2.72861 18.5406 3.17741 18.0912L18.0898 3.17805C18.5392 2.72861 18.5392 2.00019 18.0898 1.55139L19.6513 3.11292C20.1008 3.56235 20.1008 4.29014 19.6513 4.73957L4.7383 19.6527C4.2895 20.1021 3.56109 20.1021 3.1123 19.6527Z" fill="#C9721A"/>
<path d="M40.3478 56.8876L41.9093 58.4491C41.4599 57.9997 41.4599 57.2713 41.9093 56.8225L56.8224 41.9093C57.2718 41.4599 57.9996 41.4599 58.449 41.9093L56.8875 40.3478C56.438 39.8984 55.7096 39.8984 55.2608 40.3478L40.3478 55.2609C39.8984 55.7097 39.8984 56.4381 40.3478 56.8876Z" fill="#C9721A"/>
<path d="M19.652 56.8876L18.0904 58.4491C18.5399 57.9997 18.5399 57.2713 18.0904 56.8225L3.17741 41.9093C2.72797 41.4599 1.99958 41.4599 1.55078 41.9093L3.1123 40.3478C3.56173 39.8984 4.29015 39.8984 4.73894 40.3478L19.652 55.2603C20.1007 55.7097 20.1007 56.4381 19.652 56.8876Z" fill="#C9721A"/>
<path d="M56.8868 19.6527L58.4484 18.0912C57.9989 18.5406 57.2705 18.5406 56.8217 18.0912L41.9093 3.17805C41.4599 2.72861 41.4599 2.00019 41.9093 1.55139L40.3478 3.11292C39.8984 3.56235 39.8984 4.29014 40.3478 4.73957L55.2602 19.6527C55.7096 20.1021 56.438 20.1021 56.8868 19.6527Z" fill="#C9721A"/>
<path d="M11.7509 21.5634C11.2868 22.0268 10.5354 22.0268 10.0712 21.5634C9.60776 21.0992 9.60776 20.3479 10.0712 19.8837C10.5354 19.4196 11.2868 19.4196 11.7509 19.8837C12.2144 20.3472 12.2144 21.0992 11.7509 21.5634Z" fill="#C9721A"/>
<path d="M15.3193 26.3196C15.9751 26.3196 16.5067 25.7879 16.5067 25.1321C16.5067 24.4763 15.9751 23.9447 15.3193 23.9447C14.6635 23.9447 14.1318 24.4763 14.1318 25.1321C14.1318 25.7879 14.6635 26.3196 15.3193 26.3196Z" fill="#C9721A"/>
<path d="M20.5683 30.3798C20.1048 30.8439 19.3527 30.8439 18.8886 30.3798C18.4251 29.9163 18.4251 29.1643 18.8886 28.7002C19.3521 28.2367 20.1041 28.2367 20.5683 28.7002C21.0317 29.1643 21.0317 29.9163 20.5683 30.3798Z" fill="#C9721A"/>
<defs>
<linearGradient id="paint0_linear_40_261" x1="42.9688" y1="17.0309" x2="47.8037" y2="12.196" gradientUnits="userSpaceOnUse">
<stop offset="0.0016" stop-color="white" stop-opacity="0"/>
<stop offset="1" stop-color="white"/>
</linearGradient>
<linearGradient id="paint1_linear_40_261" x1="17.0311" y1="42.9692" x2="12.1963" y2="47.804" gradientUnits="userSpaceOnUse">
<stop offset="0.0016" stop-color="white" stop-opacity="0"/>
<stop offset="1" stop-color="white"/>
</linearGradient>
</defs>
</svg>
