<svg width="30" height="60" viewBox="0 0 30 60" fill="none" xmlns="http://www.w3.org/2000/svg">
<path d="M27.2783 57.0261L27.2783 2.97388L2.72089 2.97388L2.72089 57.0261H27.2783Z" fill="#FFB245"/>
<path opacity="0.6" d="M27.2791 5.94775H2.72168V12.4792H27.2791V5.94775Z" fill="url(#paint0_linear_40_222)"/>
<path opacity="0.6" d="M27.2791 47.5203H2.72168V54.0517H27.2791V47.5203Z" fill="url(#paint1_linear_40_222)"/>
<path d="M0 4.84886V1.09894C0 0.492143 0.660773 0 1.47548 0H28.5245C29.3392 0 30 0.492143 30 1.09894V4.84886C30 5.45566 29.3392 5.9478 28.5245 5.9478H1.47548C0.660773 5.9478 0 5.45566 0 4.84886Z" fill="#E38E27"/>
<path d="M30 4.84871V2.73926C30 3.34605 29.3392 3.83819 28.5245 3.83819H1.47548C0.660773 3.83819 0 3.34605 0 2.73926V4.84871C0 5.4555 0.660773 5.94764 1.47548 5.94764H28.5245C29.3392 5.94764 30 5.4555 30 4.84871Z" fill="#C9721A"/>
<path d="M0 58.9011V55.1512C0 54.5444 0.660773 54.0522 1.47548 54.0522H28.5245C29.3392 54.0522 30 54.5444 30 55.1512V58.9011C30 59.5079 29.3392 60 28.5245 60H1.47548C0.660773 60 0 59.5079 0 58.9011Z" fill="#E38E27"/>
<path d="M30 55.1512V57.2606C30 56.6538 29.3392 56.1617 28.5245 56.1617H1.47548C0.660773 56.1617 0 56.6538 0 57.2606V55.1512C0 54.5444 0.660773 54.0522 1.47548 54.0522H28.5245C29.3392 54.0522 30 54.5444 30 55.1512Z" fill="#C9721A"/>
<path d="M5.76319 15.9114C6.6043 15.9114 7.28617 15.4036 7.28617 14.7771C7.28617 14.1507 6.6043 13.6428 5.76319 13.6428C4.92208 13.6428 4.24023 14.1507 4.24023 14.7771C4.24023 15.4036 4.92208 15.9114 5.76319 15.9114Z" fill="#C9721A"/>
<path d="M5.76319 21.8665C6.6043 21.8665 7.28617 21.3587 7.28617 20.7322C7.28617 20.1057 6.6043 19.5979 5.76319 19.5979C4.92208 19.5979 4.24023 20.1057 4.24023 20.7322C4.24023 21.3587 4.92208 21.8665 5.76319 21.8665Z" fill="#C9721A"/>
<path d="M5.76319 27.8223C6.6043 27.8223 7.28617 27.3145 7.28617 26.688C7.28617 26.0616 6.6043 25.5537 5.76319 25.5537C4.92208 25.5537 4.24023 26.0616 4.24023 26.688C4.24023 27.3145 4.92208 27.8223 5.76319 27.8223Z" fill="#C9721A"/>
<defs>
<linearGradient id="paint0_linear_40_222" x1="15" y1="12.4794" x2="15" y2="5.94769" gradientUnits="userSpaceOnUse">
<stop offset="0.0016" stop-color="white" stop-opacity="0"/>
<stop offset="1" stop-color="white"/>
</linearGradient>
<linearGradient id="paint1_linear_40_222" x1="14.9999" y1="47.5205" x2="14.9999" y2="54.0522" gradientUnits="userSpaceOnUse">
<stop offset="0.0016" stop-color="white" stop-opacity="0"/>
<stop offset="1" stop-color="white"/>
</linearGradient>
</defs>
</svg>
