<svg width="60" height="30" viewBox="0 0 60 30" fill="none" xmlns="http://www.w3.org/2000/svg">
<path d="M57.0268 2.72168H2.97461V27.2785H57.0268V2.72168Z" fill="#FFB245"/>
<path opacity="0.6" d="M57.0268 4.35913H2.97461V13.1282H57.0268V4.35913Z" fill="url(#paint0_linear_40_212)"/>
<path d="M4.84885 30H1.09893C0.492135 30 0 29.3392 0 28.5246V1.47544C0 0.660753 0.492135 0 1.09893 0H4.84885C5.45565 0 5.94779 0.660753 5.94779 1.47544V28.5237C5.94779 29.3392 5.45565 30 4.84885 30Z" fill="#E38E27"/>
<path d="M4.8487 0H2.73926C3.34605 0 3.8382 0.660753 3.8382 1.47544V28.5237C3.8382 29.3384 3.34605 29.9992 2.73926 29.9992H4.8487C5.4555 29.9992 5.94764 29.3384 5.94764 28.5237V1.47544C5.94764 0.660753 5.4555 0 4.8487 0Z" fill="#C9721A"/>
<path d="M58.9006 30H55.1507C54.5439 30 54.0518 29.3392 54.0518 28.5246V1.47544C54.0518 0.660753 54.5439 0 55.1507 0H58.9006C59.5074 0 59.9996 0.660753 59.9996 1.47544V28.5237C59.9996 29.3392 59.5074 30 58.9006 30Z" fill="#E38E27"/>
<path d="M55.1507 0H57.2601C56.6533 0 56.1612 0.660753 56.1612 1.47544V28.5237C56.1612 29.3384 56.6533 29.9992 57.2601 29.9992H55.1507C54.5439 29.9992 54.0518 29.3384 54.0518 28.5237V1.47544C54.0518 0.660753 54.5439 0 55.1507 0Z" fill="#C9721A"/>
<path d="M9.95612 24.2365C9.95612 25.0774 9.44812 25.7595 8.82181 25.7595C8.1955 25.7595 7.6875 25.0774 7.6875 24.2365C7.6875 23.3957 8.1955 22.7136 8.82181 22.7136C9.44873 22.7136 9.95612 23.3957 9.95612 24.2365Z" fill="#C9721A"/>
<path d="M14.7769 25.7595C15.4033 25.7595 15.9112 25.0776 15.9112 24.2365C15.9112 23.3955 15.4033 22.7136 14.7769 22.7136C14.1504 22.7136 13.6426 23.3955 13.6426 24.2365C13.6426 25.0776 14.1504 25.7595 14.7769 25.7595Z" fill="#C9721A"/>
<path d="M20.7329 25.7595C21.3594 25.7595 21.8672 25.0776 21.8672 24.2365C21.8672 23.3955 21.3594 22.7136 20.7329 22.7136C20.1065 22.7136 19.5986 23.3955 19.5986 24.2365C19.5986 25.0776 20.1065 25.7595 20.7329 25.7595Z" fill="#C9721A"/>
<defs>
<linearGradient id="paint0_linear_40_212" x1="30.0003" y1="13.1286" x2="30.0003" y2="4.35921" gradientUnits="userSpaceOnUse">
<stop offset="0.0016" stop-color="white" stop-opacity="0"/>
<stop offset="1" stop-color="white"/>
</linearGradient>
</defs>
</svg>
