<svg width="60" height="60" viewBox="0 0 60 60" fill="none" xmlns="http://www.w3.org/2000/svg">
<path d="M60 0H0V60H60V0Z" fill="#6A6A6A"/>
<path d="M52.174 6.42859H7.82617V55.7143H52.174V6.42859Z" fill="#0D232B"/>
<path d="M52.3325 41.7858H7.82617V52.7314H52.3325V41.7858Z" fill="#6265A8"/>
<path d="M13.1699 45.1807C13.1699 46.0482 12.5423 46.7517 11.768 46.7517C10.994 46.7517 10.3662 46.0484 10.3662 45.1807C10.3662 44.313 10.9938 43.61 11.768 43.61C12.5423 43.6102 13.1699 44.3132 13.1699 45.1807Z" fill="#2D1E66"/>
<path d="M17.0588 45.1807C17.0588 46.0482 16.4312 46.7517 15.6568 46.7517C14.8826 46.7517 14.2549 46.0484 14.2549 45.1807C14.2549 44.313 14.8825 43.61 15.6568 43.61C16.4312 43.6102 17.0588 44.3132 17.0588 45.1807Z" fill="#2D1E66"/>
<path d="M20.9474 45.1807C20.9474 46.0482 20.3198 46.7517 19.5455 46.7517C18.7713 46.7517 18.1436 46.0484 18.1436 45.1807C18.1436 44.313 18.7711 43.61 19.5455 43.61C20.3198 43.6102 20.9474 44.3132 20.9474 45.1807Z" fill="#2D1E66"/>
<path d="M24.8363 45.1807C24.8363 46.0482 24.2087 46.7517 23.4343 46.7517C22.6602 46.7517 22.0322 46.0484 22.0322 45.1807C22.0322 44.313 22.66 43.61 23.4343 43.61C24.2085 43.6102 24.8363 44.3132 24.8363 45.1807Z" fill="#2D1E66"/>
<path d="M28.7248 45.1807C28.7248 46.0482 28.0972 46.7517 27.3228 46.7517C26.5487 46.7517 25.9209 46.0484 25.9209 45.1807C25.9209 44.313 26.5485 43.61 27.3228 43.61C28.0972 43.6102 28.7248 44.3132 28.7248 45.1807Z" fill="#2D1E66"/>
<path d="M32.6154 45.1807C32.6154 46.0482 31.9878 46.7517 31.2135 46.7517C30.4393 46.7517 29.8115 46.0484 29.8115 45.1807C29.8115 44.313 30.4391 43.61 31.2135 43.61C31.9878 43.6102 32.6154 44.3132 32.6154 45.1807Z" fill="#2D1E66"/>
<path d="M36.5042 45.1807C36.5042 46.0482 35.8767 46.7517 35.1023 46.7517C34.3281 46.7517 33.7002 46.0484 33.7002 45.1807C33.7002 44.313 34.328 43.61 35.1023 43.61C35.8765 43.6102 36.5042 44.3132 36.5042 45.1807Z" fill="#2D1E66"/>
<path d="M40.3925 45.1807C40.3925 46.0482 39.765 46.7517 38.9908 46.7517C38.2166 46.7517 37.5889 46.0484 37.5889 45.1807C37.5889 44.313 38.2165 43.61 38.9908 43.61C39.765 43.6102 40.3925 44.3132 40.3925 45.1807Z" fill="#2D1E66"/>
<path d="M44.2814 45.1807C44.2814 46.0482 43.6538 46.7517 42.8795 46.7517C42.1055 46.7517 41.4775 46.0484 41.4775 45.1807C41.4775 44.313 42.1053 43.61 42.8795 43.61C43.6538 43.6102 44.2814 44.3132 44.2814 45.1807Z" fill="#2D1E66"/>
<path d="M48.1711 45.1807C48.1711 46.0482 47.5436 46.7517 46.7693 46.7517C45.9951 46.7517 45.3672 46.0484 45.3672 45.1807C45.3672 44.313 45.9949 43.61 46.7693 43.61C47.5436 43.6102 48.1711 44.3132 48.1711 45.1807Z" fill="#2D1E66"/>
<path d="M13.1699 49.235C13.1699 50.1023 12.5423 50.8057 11.768 50.8057C10.994 50.8057 10.3662 50.1025 10.3662 49.235C10.3662 48.3675 10.9938 47.6638 11.768 47.6638C12.5423 47.6638 13.1699 48.3673 13.1699 49.235Z" fill="#2D1E66"/>
<path d="M17.0588 49.235C17.0588 50.1023 16.4312 50.8057 15.6568 50.8057C14.8826 50.8057 14.2549 50.1025 14.2549 49.235C14.2549 48.3675 14.8825 47.6638 15.6568 47.6638C16.4312 47.6638 17.0588 48.3673 17.0588 49.235Z" fill="#2D1E66"/>
<path d="M20.9474 49.235C20.9474 50.1023 20.3198 50.8057 19.5455 50.8057C18.7713 50.8057 18.1436 50.1025 18.1436 49.235C18.1436 48.3675 18.7711 47.6638 19.5455 47.6638C20.3198 47.6638 20.9474 48.3673 20.9474 49.235Z" fill="#2D1E66"/>
<path d="M24.8363 49.235C24.8363 50.1023 24.2087 50.8057 23.4343 50.8057C22.6602 50.8057 22.0322 50.1025 22.0322 49.235C22.0322 48.3675 22.66 47.6638 23.4343 47.6638C24.2085 47.6638 24.8363 48.3673 24.8363 49.235Z" fill="#2D1E66"/>
<path d="M28.7248 49.235C28.7248 50.1023 28.0972 50.8057 27.3228 50.8057C26.5487 50.8057 25.9209 50.1025 25.9209 49.235C25.9209 48.3675 26.5485 47.6638 27.3228 47.6638C28.0972 47.6638 28.7248 48.3673 28.7248 49.235Z" fill="#2D1E66"/>
<path d="M32.6154 49.235C32.6154 50.1023 31.9878 50.8057 31.2135 50.8057C30.4393 50.8057 29.8115 50.1025 29.8115 49.235C29.8115 48.3675 30.4391 47.6638 31.2135 47.6638C31.9878 47.6638 32.6154 48.3673 32.6154 49.235Z" fill="#2D1E66"/>
<path d="M36.5042 49.235C36.5042 50.1023 35.8767 50.8057 35.1023 50.8057C34.3281 50.8057 33.7002 50.1025 33.7002 49.235C33.7002 48.3675 34.328 47.6638 35.1023 47.6638C35.8765 47.6638 36.5042 48.3673 36.5042 49.235Z" fill="#2D1E66"/>
<path d="M40.3925 49.235C40.3925 50.1023 39.765 50.8057 38.9908 50.8057C38.2166 50.8057 37.5889 50.1025 37.5889 49.235C37.5889 48.3675 38.2165 47.6638 38.9908 47.6638C39.765 47.6638 40.3925 48.3673 40.3925 49.235Z" fill="#2D1E66"/>
<path d="M44.2814 49.235C44.2814 50.1023 43.6538 50.8057 42.8795 50.8057C42.1055 50.8057 41.4775 50.1025 41.4775 49.235C41.4775 48.3675 42.1053 47.6638 42.8795 47.6638C43.6538 47.6638 44.2814 48.3673 44.2814 49.235Z" fill="#2D1E66"/>
<path d="M48.1711 49.235C48.1711 50.1023 47.5436 50.8057 46.7693 50.8057C45.9951 50.8057 45.3672 50.1025 45.3672 49.235C45.3672 48.3675 45.9949 47.6638 46.7693 47.6638C47.5436 47.6638 48.1711 48.3673 48.1711 49.235Z" fill="#2D1E66"/>
<path d="M51.5514 26.0109H9.31445V32.9025H51.5514V26.0109Z" fill="#A4D6C9"/>
<path d="M51.5514 32.9027H9.31445V39.7944H51.5514V32.9027Z" fill="#A4D6C9"/>
<path d="M24.3283 27.6327H10.7617V30.6732H24.3283V27.6327Z" fill="#2D1E66"/>
<path d="M24.3283 34.8281H10.7617V37.8687H24.3283V34.8281Z" fill="#2D1E66"/>
<path d="M33.0321 33.9668C33.0321 34.2326 32.8397 34.448 32.6023 34.448C32.3651 34.448 32.1729 34.2326 32.1729 33.9668C32.1729 33.7008 32.3651 33.4854 32.6023 33.4854C32.8397 33.4854 33.0321 33.7008 33.0321 33.9668Z" fill="#2D1E66"/>
<path d="M34.5692 33.9668C34.5692 34.2326 34.377 34.448 34.1398 34.448C33.9024 34.448 33.71 34.2326 33.71 33.9668C33.71 33.7008 33.9024 33.4854 34.1398 33.4854C34.377 33.4854 34.5692 33.7008 34.5692 33.9668Z" fill="#2D1E66"/>
<path d="M36.1072 33.9668C36.1072 34.2326 35.9147 34.448 35.6777 34.448C35.4403 34.448 35.248 34.2326 35.248 33.9668C35.248 33.7008 35.4403 33.4854 35.6777 33.4854C35.9147 33.4854 36.1072 33.7008 36.1072 33.9668Z" fill="#2D1E66"/>
<path d="M37.6443 33.9668C37.6443 34.2326 37.452 34.448 37.2146 34.448C36.9772 34.448 36.7852 34.2326 36.7852 33.9668C36.7852 33.7008 36.9772 33.4854 37.2146 33.4854C37.452 33.4854 37.6443 33.7008 37.6443 33.9668Z" fill="#2D1E66"/>
<path d="M39.1814 33.9668C39.1814 34.2326 38.9893 34.448 38.7519 34.448C38.5147 34.448 38.3223 34.2326 38.3223 33.9668C38.3223 33.7008 38.5147 33.4854 38.7519 33.4854C38.9893 33.4854 39.1814 33.7008 39.1814 33.9668Z" fill="#2D1E66"/>
<path d="M40.7196 33.9668C40.7196 34.2326 40.5272 34.448 40.29 34.448C40.0528 34.448 39.8604 34.2326 39.8604 33.9668C39.8604 33.7008 40.0528 33.4854 40.29 33.4854C40.5272 33.4854 40.7196 33.7008 40.7196 33.9668Z" fill="#2D1E66"/>
<path d="M42.2569 33.9668C42.2569 34.2326 42.0645 34.448 41.8273 34.448C41.5899 34.448 41.3975 34.2326 41.3975 33.9668C41.3975 33.7008 41.5899 33.4854 41.8273 33.4854C42.0645 33.4854 42.2569 33.7008 42.2569 33.9668Z" fill="#2D1E66"/>
<path d="M43.7937 33.9668C43.7937 34.2326 43.6013 34.448 43.3642 34.448C43.1268 34.448 42.9346 34.2326 42.9346 33.9668C42.9346 33.7008 43.1268 33.4854 43.3642 33.4854C43.6013 33.4854 43.7937 33.7008 43.7937 33.9668Z" fill="#2D1E66"/>
<path d="M45.332 33.9668C45.332 34.2326 45.1397 34.448 44.9023 34.448C44.6649 34.448 44.4727 34.2326 44.4727 33.9668C44.4727 33.7008 44.6649 33.4854 44.9023 33.4854C45.1397 33.4854 45.332 33.7008 45.332 33.9668Z" fill="#2D1E66"/>
<path d="M33.0321 35.3096C33.0321 35.5754 32.8397 35.791 32.6023 35.791C32.3651 35.791 32.1729 35.5754 32.1729 35.3096C32.1729 35.0438 32.3651 34.8281 32.6023 34.8281C32.8397 34.8281 33.0321 35.0439 33.0321 35.3096Z" fill="#2D1E66"/>
<path d="M34.5692 35.3096C34.5692 35.5754 34.377 35.791 34.1398 35.791C33.9024 35.791 33.71 35.5754 33.71 35.3096C33.71 35.0438 33.9024 34.8281 34.1398 34.8281C34.377 34.8281 34.5692 35.0439 34.5692 35.3096Z" fill="#2D1E66"/>
<path d="M36.1072 35.3096C36.1072 35.5754 35.9147 35.791 35.6777 35.791C35.4403 35.791 35.248 35.5754 35.248 35.3096C35.248 35.0438 35.4403 34.8281 35.6777 34.8281C35.9147 34.8281 36.1072 35.0439 36.1072 35.3096Z" fill="#2D1E66"/>
<path d="M37.6443 35.3096C37.6443 35.5754 37.452 35.791 37.2146 35.791C36.9772 35.791 36.7852 35.5754 36.7852 35.3096C36.7852 35.0438 36.9772 34.8281 37.2146 34.8281C37.452 34.8281 37.6443 35.0439 37.6443 35.3096Z" fill="#2D1E66"/>
<path d="M39.1814 35.3096C39.1814 35.5754 38.9893 35.791 38.7519 35.791C38.5147 35.791 38.3223 35.5754 38.3223 35.3096C38.3223 35.0438 38.5147 34.8281 38.7519 34.8281C38.9893 34.8281 39.1814 35.0439 39.1814 35.3096Z" fill="#2D1E66"/>
<path d="M40.7196 35.3096C40.7196 35.5754 40.5272 35.791 40.29 35.791C40.0528 35.791 39.8604 35.5754 39.8604 35.3096C39.8604 35.0438 40.0528 34.8281 40.29 34.8281C40.5272 34.8281 40.7196 35.0439 40.7196 35.3096Z" fill="#2D1E66"/>
<path d="M42.2569 35.3096C42.2569 35.5754 42.0645 35.791 41.8273 35.791C41.5899 35.791 41.3975 35.5754 41.3975 35.3096C41.3975 35.0438 41.5899 34.8281 41.8273 34.8281C42.0645 34.8281 42.2569 35.0439 42.2569 35.3096Z" fill="#2D1E66"/>
<path d="M43.7937 35.3096C43.7937 35.5754 43.6013 35.791 43.3642 35.791C43.1268 35.791 42.9346 35.5754 42.9346 35.3096C42.9346 35.0438 43.1268 34.8281 43.3642 34.8281C43.6013 34.8281 43.7937 35.0439 43.7937 35.3096Z" fill="#2D1E66"/>
<path d="M45.332 35.3096C45.332 35.5754 45.1397 35.791 44.9023 35.791C44.6649 35.791 44.4727 35.5754 44.4727 35.3096C44.4727 35.0438 44.6649 34.8281 44.9023 34.8281C45.1397 34.8281 45.332 35.0439 45.332 35.3096Z" fill="#2D1E66"/>
<path d="M33.0321 36.6528C33.0321 36.9184 32.8397 37.134 32.6023 37.134C32.3651 37.134 32.1729 36.9184 32.1729 36.6528C32.1729 36.3868 32.3651 36.1711 32.6023 36.1711C32.8397 36.1711 33.0321 36.3868 33.0321 36.6528Z" fill="#2D1E66"/>
<path d="M34.5692 36.6528C34.5692 36.9184 34.377 37.134 34.1398 37.134C33.9024 37.134 33.71 36.9184 33.71 36.6528C33.71 36.3868 33.9024 36.1711 34.1398 36.1711C34.377 36.1711 34.5692 36.3868 34.5692 36.6528Z" fill="#2D1E66"/>
<path d="M36.1072 36.6528C36.1072 36.9184 35.9147 37.134 35.6777 37.134C35.4403 37.134 35.248 36.9184 35.248 36.6528C35.248 36.3868 35.4403 36.1711 35.6777 36.1711C35.9147 36.1711 36.1072 36.3868 36.1072 36.6528Z" fill="#2D1E66"/>
<path d="M37.6443 36.6528C37.6443 36.9184 37.452 37.134 37.2146 37.134C36.9772 37.134 36.7852 36.9184 36.7852 36.6528C36.7852 36.3868 36.9772 36.1711 37.2146 36.1711C37.452 36.1711 37.6443 36.3868 37.6443 36.6528Z" fill="#2D1E66"/>
<path d="M39.1814 36.6528C39.1814 36.9184 38.9893 37.134 38.7519 37.134C38.5147 37.134 38.3223 36.9184 38.3223 36.6528C38.3223 36.3868 38.5147 36.1711 38.7519 36.1711C38.9893 36.1711 39.1814 36.3868 39.1814 36.6528Z" fill="#2D1E66"/>
<path d="M40.7196 36.6528C40.7196 36.9184 40.5272 37.134 40.29 37.134C40.0528 37.134 39.8604 36.9184 39.8604 36.6528C39.8604 36.3868 40.0528 36.1711 40.29 36.1711C40.5272 36.1711 40.7196 36.3868 40.7196 36.6528Z" fill="#2D1E66"/>
<path d="M42.2569 36.6528C42.2569 36.9184 42.0645 37.134 41.8273 37.134C41.5899 37.134 41.3975 36.9184 41.3975 36.6528C41.3975 36.3868 41.5899 36.1711 41.8273 36.1711C42.0645 36.1711 42.2569 36.3868 42.2569 36.6528Z" fill="#2D1E66"/>
<path d="M43.7937 36.6528C43.7937 36.9184 43.6013 37.134 43.3642 37.134C43.1268 37.134 42.9346 36.9184 42.9346 36.6528C42.9346 36.3868 43.1268 36.1711 43.3642 36.1711C43.6013 36.1711 43.7937 36.3868 43.7937 36.6528Z" fill="#2D1E66"/>
<path d="M45.332 36.6528C45.332 36.9184 45.1397 37.134 44.9023 37.134C44.6649 37.134 44.4727 36.9184 44.4727 36.6528C44.4727 36.3868 44.6649 36.1711 44.9023 36.1711C45.1397 36.1711 45.332 36.3868 45.332 36.6528Z" fill="#2D1E66"/>
<path d="M33.0321 37.9956C33.0321 38.2614 32.8397 38.4768 32.6023 38.4768C32.3651 38.4768 32.1729 38.2614 32.1729 37.9956C32.1729 37.7296 32.3651 37.5142 32.6023 37.5142C32.8397 37.5142 33.0321 37.7296 33.0321 37.9956Z" fill="#2D1E66"/>
<path d="M34.5692 37.9956C34.5692 38.2614 34.377 38.4768 34.1398 38.4768C33.9024 38.4768 33.71 38.2614 33.71 37.9956C33.71 37.7296 33.9024 37.5142 34.1398 37.5142C34.377 37.5142 34.5692 37.7296 34.5692 37.9956Z" fill="#2D1E66"/>
<path d="M36.1072 37.9956C36.1072 38.2614 35.9147 38.4768 35.6777 38.4768C35.4403 38.4768 35.248 38.2614 35.248 37.9956C35.248 37.7296 35.4403 37.5142 35.6777 37.5142C35.9147 37.5142 36.1072 37.7296 36.1072 37.9956Z" fill="#2D1E66"/>
<path d="M37.6443 37.9956C37.6443 38.2614 37.452 38.4768 37.2146 38.4768C36.9772 38.4768 36.7852 38.2614 36.7852 37.9956C36.7852 37.7296 36.9772 37.5142 37.2146 37.5142C37.452 37.5142 37.6443 37.7296 37.6443 37.9956Z" fill="#2D1E66"/>
<path d="M39.1814 37.9956C39.1814 38.2614 38.9893 38.4768 38.7519 38.4768C38.5147 38.4768 38.3223 38.2614 38.3223 37.9956C38.3223 37.7296 38.5147 37.5142 38.7519 37.5142C38.9893 37.5142 39.1814 37.7296 39.1814 37.9956Z" fill="#2D1E66"/>
<path d="M40.7196 37.9956C40.7196 38.2614 40.5272 38.4768 40.29 38.4768C40.0528 38.4768 39.8604 38.2614 39.8604 37.9956C39.8604 37.7296 40.0528 37.5142 40.29 37.5142C40.5272 37.5142 40.7196 37.7296 40.7196 37.9956Z" fill="#2D1E66"/>
<path d="M42.2569 37.9956C42.2569 38.2614 42.0645 38.4768 41.8273 38.4768C41.5899 38.4768 41.3975 38.2614 41.3975 37.9956C41.3975 37.7296 41.5899 37.5142 41.8273 37.5142C42.0645 37.5142 42.2569 37.7296 42.2569 37.9956Z" fill="#2D1E66"/>
<path d="M43.7937 37.9956C43.7937 38.2614 43.6013 38.4768 43.3642 38.4768C43.1268 38.4768 42.9346 38.2614 42.9346 37.9956C42.9346 37.7296 43.1268 37.5142 43.3642 37.5142C43.6013 37.5142 43.7937 37.7296 43.7937 37.9956Z" fill="#2D1E66"/>
<path d="M45.332 37.9956C45.332 38.2614 45.1397 38.4768 44.9023 38.4768C44.6649 38.4768 44.4727 38.2614 44.4727 37.9956C44.4727 37.7296 44.6649 37.5142 44.9023 37.5142C45.1397 37.5142 45.332 37.7296 45.332 37.9956Z" fill="#2D1E66"/>
<path d="M33.0321 27.4426C33.0321 27.7084 32.8397 27.9239 32.6023 27.9239C32.3651 27.9239 32.1729 27.7084 32.1729 27.4426C32.1729 27.1766 32.3651 26.9612 32.6023 26.9612C32.8397 26.9612 33.0321 27.1766 33.0321 27.4426Z" fill="#2D1E66"/>
<path d="M34.5692 27.4426C34.5692 27.7084 34.377 27.9239 34.1398 27.9239C33.9024 27.9239 33.71 27.7084 33.71 27.4426C33.71 27.1766 33.9024 26.9612 34.1398 26.9612C34.377 26.9612 34.5692 27.1766 34.5692 27.4426Z" fill="#2D1E66"/>
<path d="M36.1072 27.4426C36.1072 27.7084 35.9147 27.9239 35.6777 27.9239C35.4403 27.9239 35.248 27.7084 35.248 27.4426C35.248 27.1766 35.4403 26.9612 35.6777 26.9612C35.9147 26.9612 36.1072 27.1766 36.1072 27.4426Z" fill="#2D1E66"/>
<path d="M37.6443 27.4426C37.6443 27.7084 37.452 27.9239 37.2146 27.9239C36.9772 27.9239 36.7852 27.7084 36.7852 27.4426C36.7852 27.1766 36.9772 26.9612 37.2146 26.9612C37.452 26.9612 37.6443 27.1766 37.6443 27.4426Z" fill="#2D1E66"/>
<path d="M39.1814 27.4426C39.1814 27.7084 38.9893 27.9239 38.7519 27.9239C38.5147 27.9239 38.3223 27.7084 38.3223 27.4426C38.3223 27.1766 38.5147 26.9612 38.7519 26.9612C38.9893 26.9612 39.1814 27.1766 39.1814 27.4426Z" fill="#2D1E66"/>
<path d="M40.7196 27.4426C40.7196 27.7084 40.5272 27.9239 40.29 27.9239C40.0528 27.9239 39.8604 27.7084 39.8604 27.4426C39.8604 27.1766 40.0528 26.9612 40.29 26.9612C40.5272 26.9612 40.7196 27.1766 40.7196 27.4426Z" fill="#2D1E66"/>
<path d="M42.2569 27.4426C42.2569 27.7084 42.0645 27.9239 41.8273 27.9239C41.5899 27.9239 41.3975 27.7084 41.3975 27.4426C41.3975 27.1766 41.5899 26.9612 41.8273 26.9612C42.0645 26.9612 42.2569 27.1766 42.2569 27.4426Z" fill="#2D1E66"/>
<path d="M43.7937 27.4426C43.7937 27.7084 43.6013 27.9239 43.3642 27.9239C43.1268 27.9239 42.9346 27.7084 42.9346 27.4426C42.9346 27.1766 43.1268 26.9612 43.3642 26.9612C43.6013 26.9612 43.7937 27.1766 43.7937 27.4426Z" fill="#2D1E66"/>
<path d="M45.332 27.4426C45.332 27.7084 45.1397 27.9239 44.9023 27.9239C44.6649 27.9239 44.4727 27.7084 44.4727 27.4426C44.4727 27.1766 44.6649 26.9612 44.9023 26.9612C45.1397 26.9612 45.332 27.1766 45.332 27.4426Z" fill="#2D1E66"/>
<path d="M33.0321 28.7855C33.0321 29.0513 32.8397 29.2669 32.6023 29.2669C32.3651 29.2669 32.1729 29.0513 32.1729 28.7855C32.1729 28.5197 32.3651 28.3041 32.6023 28.3041C32.8397 28.3041 33.0321 28.5197 33.0321 28.7855Z" fill="#2D1E66"/>
<path d="M34.5692 28.7855C34.5692 29.0513 34.377 29.2669 34.1398 29.2669C33.9024 29.2669 33.71 29.0513 33.71 28.7855C33.71 28.5197 33.9024 28.3041 34.1398 28.3041C34.377 28.3041 34.5692 28.5197 34.5692 28.7855Z" fill="#2D1E66"/>
<path d="M36.1072 28.7855C36.1072 29.0513 35.9147 29.2669 35.6777 29.2669C35.4403 29.2669 35.248 29.0513 35.248 28.7855C35.248 28.5197 35.4403 28.3041 35.6777 28.3041C35.9147 28.3041 36.1072 28.5197 36.1072 28.7855Z" fill="#2D1E66"/>
<path d="M37.6443 28.7855C37.6443 29.0513 37.452 29.2669 37.2146 29.2669C36.9772 29.2669 36.7852 29.0513 36.7852 28.7855C36.7852 28.5197 36.9772 28.3041 37.2146 28.3041C37.452 28.3041 37.6443 28.5197 37.6443 28.7855Z" fill="#2D1E66"/>
<path d="M39.1814 28.7855C39.1814 29.0513 38.9893 29.2669 38.7519 29.2669C38.5147 29.2669 38.3223 29.0513 38.3223 28.7855C38.3223 28.5197 38.5147 28.3041 38.7519 28.3041C38.9893 28.3041 39.1814 28.5197 39.1814 28.7855Z" fill="#2D1E66"/>
<path d="M40.7196 28.7855C40.7196 29.0513 40.5272 29.2669 40.29 29.2669C40.0528 29.2669 39.8604 29.0513 39.8604 28.7855C39.8604 28.5197 40.0528 28.3041 40.29 28.3041C40.5272 28.3041 40.7196 28.5197 40.7196 28.7855Z" fill="#2D1E66"/>
<path d="M42.2569 28.7855C42.2569 29.0513 42.0645 29.2669 41.8273 29.2669C41.5899 29.2669 41.3975 29.0513 41.3975 28.7855C41.3975 28.5197 41.5899 28.3041 41.8273 28.3041C42.0645 28.3041 42.2569 28.5197 42.2569 28.7855Z" fill="#2D1E66"/>
<path d="M43.7937 28.7855C43.7937 29.0513 43.6013 29.2669 43.3642 29.2669C43.1268 29.2669 42.9346 29.0513 42.9346 28.7855C42.9346 28.5197 43.1268 28.3041 43.3642 28.3041C43.6013 28.3041 43.7937 28.5197 43.7937 28.7855Z" fill="#2D1E66"/>
<path d="M44.9023 29.2669C45.1396 29.2669 45.332 29.0514 45.332 28.7855C45.332 28.5196 45.1396 28.3041 44.9023 28.3041C44.665 28.3041 44.4727 28.5196 44.4727 28.7855C44.4727 29.0514 44.665 29.2669 44.9023 29.2669Z" fill="#2D1E66"/>
<path d="M33.0321 30.1285C33.0321 30.3941 32.8397 30.6097 32.6023 30.6097C32.3651 30.6097 32.1729 30.3941 32.1729 30.1285C32.1729 29.8625 32.3651 29.6469 32.6023 29.6469C32.8397 29.6469 33.0321 29.8625 33.0321 30.1285Z" fill="#2D1E66"/>
<path d="M34.5692 30.1285C34.5692 30.3941 34.377 30.6097 34.1398 30.6097C33.9024 30.6097 33.71 30.3941 33.71 30.1285C33.71 29.8625 33.9024 29.6469 34.1398 29.6469C34.377 29.6469 34.5692 29.8625 34.5692 30.1285Z" fill="#2D1E66"/>
<path d="M36.1072 30.1285C36.1072 30.3941 35.9147 30.6097 35.6777 30.6097C35.4403 30.6097 35.248 30.3941 35.248 30.1285C35.248 29.8625 35.4403 29.6469 35.6777 29.6469C35.9147 29.6469 36.1072 29.8625 36.1072 30.1285Z" fill="#2D1E66"/>
<path d="M37.6443 30.1285C37.6443 30.3941 37.452 30.6097 37.2146 30.6097C36.9772 30.6097 36.7852 30.3941 36.7852 30.1285C36.7852 29.8625 36.9772 29.6469 37.2146 29.6469C37.452 29.6469 37.6443 29.8625 37.6443 30.1285Z" fill="#2D1E66"/>
<path d="M39.1814 30.1285C39.1814 30.3941 38.9893 30.6097 38.7519 30.6097C38.5147 30.6097 38.3223 30.3941 38.3223 30.1285C38.3223 29.8625 38.5147 29.6469 38.7519 29.6469C38.9893 29.6469 39.1814 29.8625 39.1814 30.1285Z" fill="#2D1E66"/>
<path d="M40.7196 30.1285C40.7196 30.3941 40.5272 30.6097 40.29 30.6097C40.0528 30.6097 39.8604 30.3941 39.8604 30.1285C39.8604 29.8625 40.0528 29.6469 40.29 29.6469C40.5272 29.6469 40.7196 29.8625 40.7196 30.1285Z" fill="#2D1E66"/>
<path d="M42.2569 30.1285C42.2569 30.3941 42.0645 30.6097 41.8273 30.6097C41.5899 30.6097 41.3975 30.3941 41.3975 30.1285C41.3975 29.8625 41.5899 29.6469 41.8273 29.6469C42.0645 29.6469 42.2569 29.8625 42.2569 30.1285Z" fill="#2D1E66"/>
<path d="M43.7937 30.1285C43.7937 30.3941 43.6013 30.6097 43.3642 30.6097C43.1268 30.6097 42.9346 30.3941 42.9346 30.1285C42.9346 29.8625 43.1268 29.6469 43.3642 29.6469C43.6013 29.6469 43.7937 29.8625 43.7937 30.1285Z" fill="#2D1E66"/>
<path d="M45.332 30.1285C45.332 30.3941 45.1397 30.6097 44.9023 30.6097C44.6649 30.6097 44.4727 30.3941 44.4727 30.1285C44.4727 29.8625 44.6649 29.6469 44.9023 29.6469C45.1397 29.6469 45.332 29.8625 45.332 30.1285Z" fill="#2D1E66"/>
<path d="M33.0321 31.4713C33.0321 31.7371 32.8397 31.9525 32.6023 31.9525C32.3651 31.9525 32.1729 31.7371 32.1729 31.4713C32.1729 31.2053 32.3651 30.9899 32.6023 30.9899C32.8397 30.9899 33.0321 31.2053 33.0321 31.4713Z" fill="#2D1E66"/>
<path d="M34.5692 31.4713C34.5692 31.7371 34.377 31.9525 34.1398 31.9525C33.9024 31.9525 33.71 31.7371 33.71 31.4713C33.71 31.2053 33.9024 30.9899 34.1398 30.9899C34.377 30.9899 34.5692 31.2053 34.5692 31.4713Z" fill="#2D1E66"/>
<path d="M36.1072 31.4713C36.1072 31.7371 35.9147 31.9525 35.6777 31.9525C35.4403 31.9525 35.248 31.7371 35.248 31.4713C35.248 31.2053 35.4403 30.9899 35.6777 30.9899C35.9147 30.9899 36.1072 31.2053 36.1072 31.4713Z" fill="#2D1E66"/>
<path d="M37.6443 31.4713C37.6443 31.7371 37.452 31.9525 37.2146 31.9525C36.9772 31.9525 36.7852 31.7371 36.7852 31.4713C36.7852 31.2053 36.9772 30.9899 37.2146 30.9899C37.452 30.9899 37.6443 31.2053 37.6443 31.4713Z" fill="#2D1E66"/>
<path d="M39.1814 31.4713C39.1814 31.7371 38.9893 31.9525 38.7519 31.9525C38.5147 31.9525 38.3223 31.7371 38.3223 31.4713C38.3223 31.2053 38.5147 30.9899 38.7519 30.9899C38.9893 30.9899 39.1814 31.2053 39.1814 31.4713Z" fill="#2D1E66"/>
<path d="M40.7196 31.4713C40.7196 31.7371 40.5272 31.9525 40.29 31.9525C40.0528 31.9525 39.8604 31.7371 39.8604 31.4713C39.8604 31.2053 40.0528 30.9899 40.29 30.9899C40.5272 30.9899 40.7196 31.2053 40.7196 31.4713Z" fill="#2D1E66"/>
<path d="M42.2569 31.4713C42.2569 31.7371 42.0645 31.9525 41.8273 31.9525C41.5899 31.9525 41.3975 31.7371 41.3975 31.4713C41.3975 31.2053 41.5899 30.9899 41.8273 30.9899C42.0645 30.9899 42.2569 31.2053 42.2569 31.4713Z" fill="#2D1E66"/>
<path d="M43.7937 31.4713C43.7937 31.7371 43.6013 31.9525 43.3642 31.9525C43.1268 31.9525 42.9346 31.7371 42.9346 31.4713C42.9346 31.2053 43.1268 30.9899 43.3642 30.9899C43.6013 30.9899 43.7937 31.2053 43.7937 31.4713Z" fill="#2D1E66"/>
<path d="M45.332 31.4713C45.332 31.7371 45.1397 31.9525 44.9023 31.9525C44.6649 31.9525 44.4727 31.7371 44.4727 31.4713C44.4727 31.2053 44.6649 30.9899 44.9023 30.9899C45.1397 30.9899 45.332 31.2053 45.332 31.4713Z" fill="#2D1E66"/>
<path d="M19.851 28.3041H11.2021V29.6469H19.851V28.3041Z" fill="#00FF00"/>
<path d="M19.851 35.6769H11.2021V37.0199H19.851V35.6769Z" fill="#00FF00"/>
<path d="M9.31445 32.9027H51.5514V26.0109L51.065 31.9524L9.31445 32.9027Z" fill="#381A3F"/>
<path d="M51.5514 8.4928H9.31445V15.3843H51.5514V8.4928Z" fill="#A4D6C9"/>
<path d="M51.5514 15.3844H9.31445V22.276H51.5514V15.3844Z" fill="#A4D6C9"/>
<path d="M24.3283 10.1145H10.7617V13.1547H24.3283V10.1145Z" fill="#2D1E66"/>
<path d="M24.3283 17.3101H10.7617V20.3506H24.3283V17.3101Z" fill="#2D1E66"/>
<path d="M33.0321 16.4487C33.0321 16.7143 32.8397 16.9299 32.6023 16.9299C32.3651 16.9299 32.1729 16.7143 32.1729 16.4487C32.1729 16.1827 32.3651 15.967 32.6023 15.967C32.8397 15.967 33.0321 16.1827 33.0321 16.4487Z" fill="#2D1E66"/>
<path d="M34.5692 16.4487C34.5692 16.7143 34.377 16.9299 34.1398 16.9299C33.9024 16.9299 33.71 16.7143 33.71 16.4487C33.71 16.1827 33.9024 15.967 34.1398 15.967C34.377 15.967 34.5692 16.1827 34.5692 16.4487Z" fill="#2D1E66"/>
<path d="M36.1072 16.4487C36.1072 16.7143 35.9147 16.9299 35.6777 16.9299C35.4403 16.9299 35.248 16.7143 35.248 16.4487C35.248 16.1827 35.4403 15.967 35.6777 15.967C35.9147 15.967 36.1072 16.1827 36.1072 16.4487Z" fill="#2D1E66"/>
<path d="M37.6443 16.4487C37.6443 16.7143 37.452 16.9299 37.2146 16.9299C36.9772 16.9299 36.7852 16.7143 36.7852 16.4487C36.7852 16.1827 36.9772 15.967 37.2146 15.967C37.452 15.967 37.6443 16.1827 37.6443 16.4487Z" fill="#2D1E66"/>
<path d="M39.1814 16.4487C39.1814 16.7143 38.9893 16.9299 38.7519 16.9299C38.5147 16.9299 38.3223 16.7143 38.3223 16.4487C38.3223 16.1827 38.5147 15.967 38.7519 15.967C38.9893 15.967 39.1814 16.1827 39.1814 16.4487Z" fill="#2D1E66"/>
<path d="M40.7196 16.4487C40.7196 16.7143 40.5272 16.9299 40.29 16.9299C40.0528 16.9299 39.8604 16.7143 39.8604 16.4487C39.8604 16.1827 40.0528 15.967 40.29 15.967C40.5272 15.967 40.7196 16.1827 40.7196 16.4487Z" fill="#2D1E66"/>
<path d="M42.2569 16.4487C42.2569 16.7143 42.0645 16.9299 41.8273 16.9299C41.5899 16.9299 41.3975 16.7143 41.3975 16.4487C41.3975 16.1827 41.5899 15.967 41.8273 15.967C42.0645 15.967 42.2569 16.1827 42.2569 16.4487Z" fill="#2D1E66"/>
<path d="M43.7937 16.4487C43.7937 16.7143 43.6013 16.9299 43.3642 16.9299C43.1268 16.9299 42.9346 16.7143 42.9346 16.4487C42.9346 16.1827 43.1268 15.967 43.3642 15.967C43.6013 15.967 43.7937 16.1827 43.7937 16.4487Z" fill="#2D1E66"/>
<path d="M45.332 16.4487C45.332 16.7143 45.1397 16.9299 44.9023 16.9299C44.6649 16.9299 44.4727 16.7143 44.4727 16.4487C44.4727 16.1827 44.6649 15.967 44.9023 15.967C45.1397 15.967 45.332 16.1827 45.332 16.4487Z" fill="#2D1E66"/>
<path d="M33.0321 17.7915C33.0321 18.0573 32.8397 18.2727 32.6023 18.2727C32.3651 18.2727 32.1729 18.0573 32.1729 17.7915C32.1729 17.5255 32.3651 17.3101 32.6023 17.3101C32.8397 17.3101 33.0321 17.5255 33.0321 17.7915Z" fill="#2D1E66"/>
<path d="M34.5692 17.7915C34.5692 18.0573 34.377 18.2727 34.1398 18.2727C33.9024 18.2727 33.71 18.0573 33.71 17.7915C33.71 17.5255 33.9024 17.3101 34.1398 17.3101C34.377 17.3101 34.5692 17.5255 34.5692 17.7915Z" fill="#2D1E66"/>
<path d="M36.1072 17.7915C36.1072 18.0573 35.9147 18.2727 35.6777 18.2727C35.4403 18.2727 35.248 18.0573 35.248 17.7915C35.248 17.5255 35.4403 17.3101 35.6777 17.3101C35.9147 17.3101 36.1072 17.5255 36.1072 17.7915Z" fill="#2D1E66"/>
<path d="M37.6443 17.7915C37.6443 18.0573 37.452 18.2727 37.2146 18.2727C36.9772 18.2727 36.7852 18.0573 36.7852 17.7915C36.7852 17.5255 36.9772 17.3101 37.2146 17.3101C37.452 17.3101 37.6443 17.5255 37.6443 17.7915Z" fill="#2D1E66"/>
<path d="M39.1814 17.7915C39.1814 18.0573 38.9893 18.2727 38.7519 18.2727C38.5147 18.2727 38.3223 18.0573 38.3223 17.7915C38.3223 17.5255 38.5147 17.3101 38.7519 17.3101C38.9893 17.3101 39.1814 17.5255 39.1814 17.7915Z" fill="#2D1E66"/>
<path d="M40.7196 17.7915C40.7196 18.0573 40.5272 18.2727 40.29 18.2727C40.0528 18.2727 39.8604 18.0573 39.8604 17.7915C39.8604 17.5255 40.0528 17.3101 40.29 17.3101C40.5272 17.3101 40.7196 17.5255 40.7196 17.7915Z" fill="#2D1E66"/>
<path d="M42.2569 17.7915C42.2569 18.0573 42.0645 18.2727 41.8273 18.2727C41.5899 18.2727 41.3975 18.0573 41.3975 17.7915C41.3975 17.5255 41.5899 17.3101 41.8273 17.3101C42.0645 17.3101 42.2569 17.5255 42.2569 17.7915Z" fill="#2D1E66"/>
<path d="M43.7937 17.7915C43.7937 18.0573 43.6013 18.2727 43.3642 18.2727C43.1268 18.2727 42.9346 18.0573 42.9346 17.7915C42.9346 17.5255 43.1268 17.3101 43.3642 17.3101C43.6013 17.3101 43.7937 17.5255 43.7937 17.7915Z" fill="#2D1E66"/>
<path d="M45.332 17.7915C45.332 18.0573 45.1397 18.2727 44.9023 18.2727C44.6649 18.2727 44.4727 18.0573 44.4727 17.7915C44.4727 17.5255 44.6649 17.3101 44.9023 17.3101C45.1397 17.3101 45.332 17.5255 45.332 17.7915Z" fill="#2D1E66"/>
<path d="M33.0321 19.1342C33.0321 19.4002 32.8397 19.6158 32.6023 19.6158C32.3651 19.6158 32.1729 19.4002 32.1729 19.1342C32.1729 18.8684 32.3651 18.653 32.6023 18.653C32.8397 18.653 33.0321 18.8684 33.0321 19.1342Z" fill="#2D1E66"/>
<path d="M34.5692 19.1342C34.5692 19.4002 34.377 19.6158 34.1398 19.6158C33.9024 19.6158 33.71 19.4002 33.71 19.1342C33.71 18.8684 33.9024 18.653 34.1398 18.653C34.377 18.653 34.5692 18.8684 34.5692 19.1342Z" fill="#2D1E66"/>
<path d="M36.1072 19.1342C36.1072 19.4002 35.9147 19.6158 35.6777 19.6158C35.4403 19.6158 35.248 19.4002 35.248 19.1342C35.248 18.8684 35.4403 18.653 35.6777 18.653C35.9147 18.653 36.1072 18.8684 36.1072 19.1342Z" fill="#2D1E66"/>
<path d="M37.6443 19.1342C37.6443 19.4002 37.452 19.6158 37.2146 19.6158C36.9772 19.6158 36.7852 19.4002 36.7852 19.1342C36.7852 18.8684 36.9772 18.653 37.2146 18.653C37.452 18.653 37.6443 18.8684 37.6443 19.1342Z" fill="#2D1E66"/>
<path d="M39.1814 19.1342C39.1814 19.4002 38.9893 19.6158 38.7519 19.6158C38.5147 19.6158 38.3223 19.4002 38.3223 19.1342C38.3223 18.8684 38.5147 18.653 38.7519 18.653C38.9893 18.653 39.1814 18.8684 39.1814 19.1342Z" fill="#2D1E66"/>
<path d="M40.7196 19.1342C40.7196 19.4002 40.5272 19.6158 40.29 19.6158C40.0528 19.6158 39.8604 19.4002 39.8604 19.1342C39.8604 18.8684 40.0528 18.653 40.29 18.653C40.5272 18.653 40.7196 18.8684 40.7196 19.1342Z" fill="#2D1E66"/>
<path d="M42.2569 19.1342C42.2569 19.4002 42.0645 19.6158 41.8273 19.6158C41.5899 19.6158 41.3975 19.4002 41.3975 19.1342C41.3975 18.8684 41.5899 18.653 41.8273 18.653C42.0645 18.653 42.2569 18.8684 42.2569 19.1342Z" fill="#2D1E66"/>
<path d="M43.7937 19.1342C43.7937 19.4002 43.6013 19.6158 43.3642 19.6158C43.1268 19.6158 42.9346 19.4002 42.9346 19.1342C42.9346 18.8684 43.1268 18.653 43.3642 18.653C43.6013 18.653 43.7937 18.8684 43.7937 19.1342Z" fill="#2D1E66"/>
<path d="M45.332 19.1342C45.332 19.4002 45.1397 19.6158 44.9023 19.6158C44.6649 19.6158 44.4727 19.4002 44.4727 19.1342C44.4727 18.8684 44.6649 18.653 44.9023 18.653C45.1397 18.653 45.332 18.8684 45.332 19.1342Z" fill="#2D1E66"/>
<path d="M33.0321 20.4772C33.0321 20.743 32.8397 20.9586 32.6023 20.9586C32.3651 20.9586 32.1729 20.743 32.1729 20.4772C32.1729 20.2112 32.3651 19.9957 32.6023 19.9957C32.8397 19.9957 33.0321 20.2112 33.0321 20.4772Z" fill="#2D1E66"/>
<path d="M34.5692 20.4772C34.5692 20.743 34.377 20.9586 34.1398 20.9586C33.9024 20.9586 33.71 20.743 33.71 20.4772C33.71 20.2112 33.9024 19.9957 34.1398 19.9957C34.377 19.9957 34.5692 20.2112 34.5692 20.4772Z" fill="#2D1E66"/>
<path d="M36.1072 20.4772C36.1072 20.743 35.9147 20.9586 35.6777 20.9586C35.4403 20.9586 35.248 20.743 35.248 20.4772C35.248 20.2112 35.4403 19.9957 35.6777 19.9957C35.9147 19.9957 36.1072 20.2112 36.1072 20.4772Z" fill="#2D1E66"/>
<path d="M37.6443 20.4772C37.6443 20.743 37.452 20.9586 37.2146 20.9586C36.9772 20.9586 36.7852 20.743 36.7852 20.4772C36.7852 20.2112 36.9772 19.9957 37.2146 19.9957C37.452 19.9957 37.6443 20.2112 37.6443 20.4772Z" fill="#2D1E66"/>
<path d="M39.1814 20.4772C39.1814 20.743 38.9893 20.9586 38.7519 20.9586C38.5147 20.9586 38.3223 20.743 38.3223 20.4772C38.3223 20.2112 38.5147 19.9957 38.7519 19.9957C38.9893 19.9957 39.1814 20.2112 39.1814 20.4772Z" fill="#2D1E66"/>
<path d="M40.7196 20.4772C40.7196 20.743 40.5272 20.9586 40.29 20.9586C40.0528 20.9586 39.8604 20.743 39.8604 20.4772C39.8604 20.2112 40.0528 19.9957 40.29 19.9957C40.5272 19.9957 40.7196 20.2112 40.7196 20.4772Z" fill="#2D1E66"/>
<path d="M42.2569 20.4772C42.2569 20.743 42.0645 20.9586 41.8273 20.9586C41.5899 20.9586 41.3975 20.743 41.3975 20.4772C41.3975 20.2112 41.5899 19.9957 41.8273 19.9957C42.0645 19.9957 42.2569 20.2112 42.2569 20.4772Z" fill="#2D1E66"/>
<path d="M43.7937 20.4772C43.7937 20.743 43.6013 20.9586 43.3642 20.9586C43.1268 20.9586 42.9346 20.743 42.9346 20.4772C42.9346 20.2112 43.1268 19.9957 43.3642 19.9957C43.6013 19.9957 43.7937 20.2112 43.7937 20.4772Z" fill="#2D1E66"/>
<path d="M45.332 20.4772C45.332 20.743 45.1397 20.9586 44.9023 20.9586C44.6649 20.9586 44.4727 20.743 44.4727 20.4772C44.4727 20.2112 44.6649 19.9957 44.9023 19.9957C45.1397 19.9957 45.332 20.2112 45.332 20.4772Z" fill="#2D1E66"/>
<path d="M33.0321 9.92457C33.0321 10.1904 32.8397 10.4058 32.6023 10.4058C32.3651 10.4058 32.1729 10.1904 32.1729 9.92457C32.1729 9.65857 32.3651 9.44312 32.6023 9.44312C32.8397 9.44312 33.0321 9.65857 33.0321 9.92457Z" fill="#2D1E66"/>
<path d="M34.5692 9.92457C34.5692 10.1904 34.377 10.4058 34.1398 10.4058C33.9024 10.4058 33.71 10.1904 33.71 9.92457C33.71 9.65857 33.9024 9.44312 34.1398 9.44312C34.377 9.44312 34.5692 9.65857 34.5692 9.92457Z" fill="#2D1E66"/>
<path d="M36.1072 9.92457C36.1072 10.1904 35.9147 10.4058 35.6777 10.4058C35.4403 10.4058 35.248 10.1904 35.248 9.92457C35.248 9.65857 35.4403 9.44312 35.6777 9.44312C35.9147 9.44312 36.1072 9.65857 36.1072 9.92457Z" fill="#2D1E66"/>
<path d="M37.6443 9.92457C37.6443 10.1904 37.452 10.4058 37.2146 10.4058C36.9772 10.4058 36.7852 10.1904 36.7852 9.92457C36.7852 9.65857 36.9772 9.44312 37.2146 9.44312C37.452 9.44312 37.6443 9.65857 37.6443 9.92457Z" fill="#2D1E66"/>
<path d="M39.1814 9.92457C39.1814 10.1904 38.9893 10.4058 38.7519 10.4058C38.5147 10.4058 38.3223 10.1904 38.3223 9.92457C38.3223 9.65857 38.5147 9.44312 38.7519 9.44312C38.9893 9.44312 39.1814 9.65857 39.1814 9.92457Z" fill="#2D1E66"/>
<path d="M40.7196 9.92457C40.7196 10.1904 40.5272 10.4058 40.29 10.4058C40.0528 10.4058 39.8604 10.1904 39.8604 9.92457C39.8604 9.65857 40.0528 9.44312 40.29 9.44312C40.5272 9.44312 40.7196 9.65857 40.7196 9.92457Z" fill="#2D1E66"/>
<path d="M42.2569 9.92457C42.2569 10.1904 42.0645 10.4058 41.8273 10.4058C41.5899 10.4058 41.3975 10.1904 41.3975 9.92457C41.3975 9.65857 41.5899 9.44312 41.8273 9.44312C42.0645 9.44312 42.2569 9.65857 42.2569 9.92457Z" fill="#2D1E66"/>
<path d="M43.7937 9.92457C43.7937 10.1904 43.6013 10.4058 43.3642 10.4058C43.1268 10.4058 42.9346 10.1904 42.9346 9.92457C42.9346 9.65857 43.1268 9.44312 43.3642 9.44312C43.6013 9.44312 43.7937 9.65857 43.7937 9.92457Z" fill="#2D1E66"/>
<path d="M45.332 9.92457C45.332 10.1904 45.1397 10.4058 44.9023 10.4058C44.6649 10.4058 44.4727 10.1904 44.4727 9.92457C44.4727 9.65857 44.6649 9.44312 44.9023 9.44312C45.1397 9.44312 45.332 9.65857 45.332 9.92457Z" fill="#2D1E66"/>
<path d="M33.0321 11.2673C33.0321 11.5332 32.8397 11.7486 32.6023 11.7486C32.3651 11.7486 32.1729 11.5332 32.1729 11.2673C32.1729 11.0013 32.3651 10.7859 32.6023 10.7859C32.8397 10.7859 33.0321 11.0013 33.0321 11.2673Z" fill="#2D1E66"/>
<path d="M34.5692 11.2673C34.5692 11.5332 34.377 11.7486 34.1398 11.7486C33.9024 11.7486 33.71 11.5332 33.71 11.2673C33.71 11.0013 33.9024 10.7859 34.1398 10.7859C34.377 10.7859 34.5692 11.0013 34.5692 11.2673Z" fill="#2D1E66"/>
<path d="M36.1072 11.2673C36.1072 11.5332 35.9147 11.7486 35.6777 11.7486C35.4403 11.7486 35.248 11.5332 35.248 11.2673C35.248 11.0013 35.4403 10.7859 35.6777 10.7859C35.9147 10.7859 36.1072 11.0013 36.1072 11.2673Z" fill="#2D1E66"/>
<path d="M37.6443 11.2673C37.6443 11.5332 37.452 11.7486 37.2146 11.7486C36.9772 11.7486 36.7852 11.5332 36.7852 11.2673C36.7852 11.0013 36.9772 10.7859 37.2146 10.7859C37.452 10.7859 37.6443 11.0013 37.6443 11.2673Z" fill="#2D1E66"/>
<path d="M39.1814 11.2673C39.1814 11.5332 38.9893 11.7486 38.7519 11.7486C38.5147 11.7486 38.3223 11.5332 38.3223 11.2673C38.3223 11.0013 38.5147 10.7859 38.7519 10.7859C38.9893 10.7859 39.1814 11.0013 39.1814 11.2673Z" fill="#2D1E66"/>
<path d="M40.7196 11.2673C40.7196 11.5332 40.5272 11.7486 40.29 11.7486C40.0528 11.7486 39.8604 11.5332 39.8604 11.2673C39.8604 11.0013 40.0528 10.7859 40.29 10.7859C40.5272 10.7859 40.7196 11.0013 40.7196 11.2673Z" fill="#2D1E66"/>
<path d="M42.2569 11.2673C42.2569 11.5332 42.0645 11.7486 41.8273 11.7486C41.5899 11.7486 41.3975 11.5332 41.3975 11.2673C41.3975 11.0013 41.5899 10.7859 41.8273 10.7859C42.0645 10.7859 42.2569 11.0013 42.2569 11.2673Z" fill="#2D1E66"/>
<path d="M43.7937 11.2673C43.7937 11.5332 43.6013 11.7486 43.3642 11.7486C43.1268 11.7486 42.9346 11.5332 42.9346 11.2673C42.9346 11.0013 43.1268 10.7859 43.3642 10.7859C43.6013 10.7859 43.7937 11.0013 43.7937 11.2673Z" fill="#2D1E66"/>
<path d="M45.332 11.2673C45.332 11.5332 45.1397 11.7486 44.9023 11.7486C44.6649 11.7486 44.4727 11.5332 44.4727 11.2673C44.4727 11.0013 44.6649 10.7859 44.9023 10.7859C45.1397 10.7859 45.332 11.0013 45.332 11.2673Z" fill="#2D1E66"/>
<path d="M33.0321 12.6101C33.0321 12.8759 32.8397 13.0916 32.6023 13.0916C32.3651 13.0916 32.1729 12.8759 32.1729 12.6101C32.1729 12.3441 32.3651 12.1287 32.6023 12.1287C32.8397 12.1287 33.0321 12.3441 33.0321 12.6101Z" fill="#2D1E66"/>
<path d="M34.5692 12.6101C34.5692 12.8759 34.377 13.0916 34.1398 13.0916C33.9024 13.0916 33.71 12.8759 33.71 12.6101C33.71 12.3441 33.9024 12.1287 34.1398 12.1287C34.377 12.1287 34.5692 12.3441 34.5692 12.6101Z" fill="#2D1E66"/>
<path d="M36.1072 12.6101C36.1072 12.8759 35.9147 13.0916 35.6777 13.0916C35.4403 13.0916 35.248 12.8759 35.248 12.6101C35.248 12.3441 35.4403 12.1287 35.6777 12.1287C35.9147 12.1287 36.1072 12.3441 36.1072 12.6101Z" fill="#2D1E66"/>
<path d="M37.6443 12.6101C37.6443 12.8759 37.452 13.0916 37.2146 13.0916C36.9772 13.0916 36.7852 12.8759 36.7852 12.6101C36.7852 12.3441 36.9772 12.1287 37.2146 12.1287C37.452 12.1287 37.6443 12.3441 37.6443 12.6101Z" fill="#2D1E66"/>
<path d="M39.1814 12.6101C39.1814 12.8759 38.9893 13.0916 38.7519 13.0916C38.5147 13.0916 38.3223 12.8759 38.3223 12.6101C38.3223 12.3441 38.5147 12.1287 38.7519 12.1287C38.9893 12.1287 39.1814 12.3441 39.1814 12.6101Z" fill="#2D1E66"/>
<path d="M40.7196 12.6101C40.7196 12.8759 40.5272 13.0916 40.29 13.0916C40.0528 13.0916 39.8604 12.8759 39.8604 12.6101C39.8604 12.3441 40.0528 12.1287 40.29 12.1287C40.5272 12.1287 40.7196 12.3441 40.7196 12.6101Z" fill="#2D1E66"/>
<path d="M42.2569 12.6101C42.2569 12.8759 42.0645 13.0916 41.8273 13.0916C41.5899 13.0916 41.3975 12.8759 41.3975 12.6101C41.3975 12.3441 41.5899 12.1287 41.8273 12.1287C42.0645 12.1287 42.2569 12.3441 42.2569 12.6101Z" fill="#2D1E66"/>
<path d="M43.7937 12.6101C43.7937 12.8759 43.6013 13.0916 43.3642 13.0916C43.1268 13.0916 42.9346 12.8759 42.9346 12.6101C42.9346 12.3441 43.1268 12.1287 43.3642 12.1287C43.6013 12.1287 43.7937 12.3441 43.7937 12.6101Z" fill="#2D1E66"/>
<path d="M45.332 12.6101C45.332 12.8759 45.1397 13.0916 44.9023 13.0916C44.6649 13.0916 44.4727 12.8759 44.4727 12.6101C44.4727 12.3441 44.6649 12.1287 44.9023 12.1287C45.1397 12.1287 45.332 12.3441 45.332 12.6101Z" fill="#2D1E66"/>
<path d="M33.0321 13.9529C33.0321 14.2187 32.8397 14.4343 32.6023 14.4343C32.3651 14.4343 32.1729 14.2187 32.1729 13.9529C32.1729 13.6871 32.3651 13.4714 32.6023 13.4714C32.8397 13.4714 33.0321 13.6871 33.0321 13.9529Z" fill="#2D1E66"/>
<path d="M34.5692 13.9529C34.5692 14.2187 34.377 14.4343 34.1398 14.4343C33.9024 14.4343 33.71 14.2187 33.71 13.9529C33.71 13.6871 33.9024 13.4714 34.1398 13.4714C34.377 13.4714 34.5692 13.6871 34.5692 13.9529Z" fill="#2D1E66"/>
<path d="M36.1072 13.9529C36.1072 14.2187 35.9147 14.4343 35.6777 14.4343C35.4403 14.4343 35.248 14.2187 35.248 13.9529C35.248 13.6871 35.4403 13.4714 35.6777 13.4714C35.9147 13.4714 36.1072 13.6871 36.1072 13.9529Z" fill="#2D1E66"/>
<path d="M37.6443 13.9529C37.6443 14.2187 37.452 14.4343 37.2146 14.4343C36.9772 14.4343 36.7852 14.2187 36.7852 13.9529C36.7852 13.6871 36.9772 13.4714 37.2146 13.4714C37.452 13.4714 37.6443 13.6871 37.6443 13.9529Z" fill="#2D1E66"/>
<path d="M39.1814 13.9529C39.1814 14.2187 38.9893 14.4343 38.7519 14.4343C38.5147 14.4343 38.3223 14.2187 38.3223 13.9529C38.3223 13.6871 38.5147 13.4714 38.7519 13.4714C38.9893 13.4714 39.1814 13.6871 39.1814 13.9529Z" fill="#2D1E66"/>
<path d="M40.7196 13.9529C40.7196 14.2187 40.5272 14.4343 40.29 14.4343C40.0528 14.4343 39.8604 14.2187 39.8604 13.9529C39.8604 13.6871 40.0528 13.4714 40.29 13.4714C40.5272 13.4714 40.7196 13.6871 40.7196 13.9529Z" fill="#2D1E66"/>
<path d="M42.2569 13.9529C42.2569 14.2187 42.0645 14.4343 41.8273 14.4343C41.5899 14.4343 41.3975 14.2187 41.3975 13.9529C41.3975 13.6871 41.5899 13.4714 41.8273 13.4714C42.0645 13.4714 42.2569 13.6871 42.2569 13.9529Z" fill="#2D1E66"/>
<path d="M43.7937 13.9529C43.7937 14.2187 43.6013 14.4343 43.3642 14.4343C43.1268 14.4343 42.9346 14.2187 42.9346 13.9529C42.9346 13.6871 43.1268 13.4714 43.3642 13.4714C43.6013 13.4714 43.7937 13.6871 43.7937 13.9529Z" fill="#2D1E66"/>
<path d="M44.9023 14.4343C45.1396 14.4343 45.332 14.2188 45.332 13.9529C45.332 13.687 45.1396 13.4714 44.9023 13.4714C44.665 13.4714 44.4727 13.687 44.4727 13.9529C44.4727 14.2188 44.665 14.4343 44.9023 14.4343Z" fill="#2D1E66"/>
<path d="M19.851 10.7859H11.2021V12.1287H19.851V10.7859Z" fill="#00FF00"/>
<path d="M19.851 18.1587H11.2021V19.5015H19.851V18.1587Z" fill="#00FF00"/>
<path d="M9.31445 15.3845H51.5514V8.4928L51.065 14.4343L9.31445 15.3845Z" fill="#381A3F"/>
</svg>
