<svg width="60" height="60" viewBox="0 0 60 60" fill="none" xmlns="http://www.w3.org/2000/svg">
<path d="M57.0267 2.05957H39.146H20.8554H2.97461V20.6433H18.7447C19.9101 20.6433 20.8554 21.6031 20.8554 22.7878V56.9787H39.146V22.7878C39.146 21.6037 40.0912 20.6433 41.2566 20.6433H57.0267V2.05957Z" fill="#FFB245"/>
<path opacity="0.6" d="M39.1461 47.3207H20.8555V53.9569H39.1461V47.3207Z" fill="url(#paint0_linear_40_233)"/>
<path opacity="0.6" d="M57.0264 3.29883H2.97363V9.935H57.0264V3.29883Z" fill="url(#paint1_linear_40_233)"/>
<path d="M9.95614 18.3415C9.95614 18.9778 9.44813 19.494 8.82181 19.494C8.1955 19.494 7.6875 18.9778 7.6875 18.3415C7.6875 17.7051 8.1955 17.189 8.82181 17.189C9.44813 17.189 9.95614 17.7045 9.95614 18.3415Z" fill="#C9721A"/>
<path d="M15.9112 18.3415C15.9112 18.9778 15.4032 19.494 14.7769 19.494C14.1506 19.494 13.6426 18.9778 13.6426 18.3415C13.6426 17.7051 14.1506 17.189 14.7769 17.189C15.4032 17.189 15.9112 17.7045 15.9112 18.3415Z" fill="#C9721A"/>
<path d="M21.8663 18.3415C21.8663 18.9778 21.3583 19.494 20.732 19.494C20.1057 19.494 19.5977 18.9778 19.5977 18.3415C19.5977 17.7051 20.1057 17.189 20.732 17.189C21.3583 17.189 21.8663 17.7045 21.8663 18.3415Z" fill="#C9721A"/>
<path d="M4.8489 22.7024H1.09895C0.492149 22.7024 0 22.2023 0 21.5858V1.11656C0 0.500035 0.492149 0 1.09895 0H4.8489C5.4557 0 5.94785 0.500035 5.94785 1.11656V21.5858C5.94785 22.203 5.4557 22.7024 4.8489 22.7024Z" fill="#E38E27"/>
<path d="M58.9007 22.7024H55.1507C54.5439 22.7024 54.0518 22.2023 54.0518 21.5858V1.11656C54.0518 0.500035 54.5439 0 55.1507 0H58.9007C59.5075 0 59.9996 0.500035 59.9996 1.11656V21.5858C59.9996 22.203 59.5081 22.7024 58.9007 22.7024Z" fill="#E38E27"/>
<path d="M18.8281 58.8834V55.0733C18.8281 54.4568 19.3203 53.9568 19.9271 53.9568H40.0734C40.6802 53.9568 41.1724 54.4568 41.1724 55.0733V58.8834C41.1724 59.4999 40.6802 60 40.0734 60H19.9271C19.3203 60 18.8281 59.4999 18.8281 58.8834Z" fill="#E38E27"/>
<path d="M55.1507 0H57.2602C56.6534 0 56.1612 0.500035 56.1612 1.11656V21.5864C56.1612 22.203 56.6534 22.703 57.2602 22.703H55.1507C54.5439 22.703 54.0518 22.203 54.0518 21.5864V1.11656C54.0518 0.500035 54.5439 0 55.1507 0Z" fill="#C9721A"/>
<path d="M4.84872 22.7024H2.73926C3.34606 22.7024 3.83821 22.2023 3.83821 21.5858V1.11656C3.83821 0.500035 3.34606 0 2.73926 0H4.84872C5.45552 0 5.94766 0.500035 5.94766 1.11656V21.5858C5.94766 22.203 5.45552 22.7024 4.84872 22.7024Z" fill="#C9721A"/>
<path d="M41.1724 55.0733V57.2166C41.1724 56.6001 40.6802 56.1001 40.0734 56.1001H19.9271C19.3203 56.1001 18.8281 56.6001 18.8281 57.2166V55.0733C18.8281 54.4568 19.3203 53.9568 19.9271 53.9568H40.0734C40.6802 53.9568 41.1724 54.4568 41.1724 55.0733Z" fill="#C9721A"/>
<defs>
<linearGradient id="paint0_linear_40_233" x1="30.0005" y1="47.3205" x2="30.0005" y2="53.9569" gradientUnits="userSpaceOnUse">
<stop offset="0.0016" stop-color="white" stop-opacity="0"/>
<stop offset="1" stop-color="white"/>
</linearGradient>
<linearGradient id="paint1_linear_40_233" x1="30" y1="9.93512" x2="30" y2="3.2987" gradientUnits="userSpaceOnUse">
<stop offset="0.0016" stop-color="white" stop-opacity="0"/>
<stop offset="1" stop-color="white"/>
</linearGradient>
</defs>
</svg>
